<svg width="20" height="15" viewBox="0 0 20 15" fill="none" xmlns="http://www.w3.org/2000/svg">
<path d="M3.95969 1.216C4.40769 0.607999 4.90369 0.271998 5.44769 0.207997C5.99169 0.143998 6.45569 0.255999 6.83969 0.543999C7.25569 0.799999 7.47969 1.2 7.51169 1.744C7.57569 2.288 7.35169 2.864 6.83969 3.472C6.10369 4.336 5.60769 5.2 5.35169 6.064C5.09569 6.928 4.96769 7.696 4.96769 8.368L4.77569 6.448C6.05569 6.448 7.09569 6.816 7.89569 7.552C8.69569 8.288 9.09569 9.28 9.09569 10.528C9.09569 11.712 8.72769 12.688 7.99169 13.456C7.25569 14.192 6.24769 14.56 4.96769 14.56C3.65569 14.56 2.63169 14.128 1.89569 13.264C1.15969 12.368 0.791688 11.136 0.791688 9.568C0.791688 8.736 0.871688 7.888 1.03169 7.024C1.19169 6.128 1.49569 5.216 1.94369 4.288C2.42369 3.328 3.09569 2.304 3.95969 1.216ZM14.1357 1.216C14.5837 0.607999 15.0797 0.271998 15.6237 0.207997C16.1677 0.143998 16.6317 0.255999 17.0157 0.543999C17.4317 0.799999 17.6557 1.2 17.6877 1.744C17.7517 2.288 17.5277 2.864 17.0157 3.472C16.2797 4.336 15.7837 5.2 15.5277 6.064C15.2717 6.928 15.1437 7.696 15.1437 8.368L14.9517 6.448C16.2317 6.448 17.2717 6.816 18.0717 7.552C18.8717 8.288 19.2717 9.28 19.2717 10.528C19.2717 11.712 18.9037 12.688 18.1677 13.456C17.4317 14.192 16.4237 14.56 15.1437 14.56C13.8317 14.56 12.8077 14.128 12.0717 13.264C11.3357 12.368 10.9677 11.136 10.9677 9.568C10.9677 8.736 11.0477 7.888 11.2077 7.024C11.3677 6.128 11.6717 5.216 12.1197 4.288C12.5997 3.328 13.2717 2.304 14.1357 1.216Z" fill="#0C5BC6"/>
</svg>
